<?xml version="1.0"?><svg width="458.163" height="515.135" xmlns="http://www.w3.org/2000/svg">
 <title/>
 <g>
  <title>Layer 1</title>
  <path d="m57.314999,228.886002c0,112.479996 74.343006,203.703995 166.050007,203.703995c91.67598,0 166.018997,-91.223999 166.018997,-203.703995c0,-112.482002 -74.343018,-203.705992 -166.018997,-203.705992c-91.707001,0.000999 -166.050007,91.223997 -166.050007,203.705992l0,0z" id="path7" stroke-miterlimit="10" stroke-width="0.036" stroke="black" fill-rule="evenodd"/>
  <path d="m60.181301,228.581329c0,110.610016 73.074696,200.323029 163.211704,200.323029c90.13501,0 163.210999,-89.713013 163.210999,-200.323029c0,-110.638992 -73.075989,-200.352995 -163.210999,-200.352995c-90.137009,0 -163.211704,89.713003 -163.211704,200.352995l0,0z" id="path9" stroke-miterlimit="10" stroke-width="0.036" stroke="black" fill-rule="evenodd" fill="#e8ccba"/>
  <path d="m67.279999,184.044006c-4.740997,-1.208008 -9.511997,-0.997009 -14.433998,0.633987c-5.013,1.570007 -11.263,3.714005 -15.159,9.12001c-4.046001,5.375 -8.002001,14.494003 -8.243,23.280991c-0.271999,8.848007 3.411999,21.5 6.974998,28.868011c3.502003,7.126999 7.549,11.564987 14.252003,14.132004c6.703999,2.506989 15.159,2.687988 25.696995,0.785004l0,0l-9.087997,-76.820007l0,0z" id="path11" stroke-miterlimit="10" stroke-width="0.036" stroke="black" fill-rule="evenodd"/>
  <path d="m64.350998,266.571014c7.579002,2.324982 12.924004,1.630981 16.276001,-2.083008c3.261002,-3.865021 4.377998,-8.787003 3.472,-20.353012c-1.026001,-11.776993 -6.279999,-38.047989 -9.239998,-48.978989c-3.080002,-10.811005 -5.797005,-16.004013 -8.605003,-15.702011l0,0c-0.271996,3.110001 -0.905998,5.375 -2.143997,6.915009c-1.268002,1.418991 -2.778,1.388992 -5.103001,2.113998c-2.476002,0.724991 -6.221001,0.845001 -9.148998,2.324997c-3.02,1.479004 -5.919003,2.324997 -8.455002,6.371994c-2.597,3.986008 -5.888,10.780014 -6.612999,17.484009c-0.785,6.643005 0.633999,16.306 2.054001,21.981995c1.389,5.617004 4.045998,8.395004 6.219997,11.475006c2.114002,2.869003 4.137001,4.832001 6.553001,6.250992c2.384998,1.32901 5.223999,1.540009 7.458,2.143997c2.083,0.574005 3.986,-0.362 5.253998,1.390015c1.146,1.690002 1.931004,4.497986 2.021999,8.665009l0,0z" id="path13" fill-rule="evenodd" fill="#e8ccba"/>
  <path d="m380.868011,185.373001c4.710999,-1.208008 9.480988,-0.996994 14.434998,0.634003c4.951996,1.569992 11.173004,3.713989 15.15799,9.119995c3.925995,5.375 8.002014,14.494003 8.27301,23.281006c0.091003,8.787003 -3.412018,21.560989 -7.005005,28.897995c-3.593994,7.126007 -7.610016,11.596008 -14.252991,14.101013c-6.733002,2.506989 -15.188019,2.687988 -25.697021,0.78598l0,0l9.08902,-76.819992l0,0z" id="path15" stroke-miterlimit="10" stroke-width="0.036" stroke="black" fill-rule="evenodd"/>
  <path d="m383.828003,267.899994c-7.609009,2.38501 -12.955017,1.661011 -16.276001,-2.053986c-3.35199,-3.895996 -4.437988,-8.697021 -3.502014,-20.353012c0.936005,-11.776001 6.189026,-38.046997 9.239014,-48.978989c3.020996,-10.840012 5.768005,-15.974014 8.605011,-15.73201l0,0c0.241974,3.110001 0.875977,5.375 2.144989,6.915009c1.178009,1.388992 2.717987,1.44899 5.104004,2.143997c2.415985,0.664993 6.100006,0.845993 9.178986,2.294998c2.930023,1.388992 5.858002,2.384995 8.455017,6.371002c2.536987,3.985992 5.737,10.779999 6.583984,17.483002c0.694,6.643997 -0.695007,16.276001 -2.053986,22.013992c-1.450012,5.645996 -4.106995,8.334 -6.221008,11.444c-2.20401,2.839005 -4.196991,4.891998 -6.553009,6.281006c-2.445984,1.358002 -5.313995,1.479004 -7.457977,2.113007c-2.174011,0.543976 -4.077026,-0.302002 -5.253998,1.418976c-1.239014,1.694 -1.903015,4.532013 -1.993011,8.639008l0,0z" id="path17" fill-rule="evenodd" fill="#e8ccba"/>
  <path d="m258.848328,214.119995c0.694,5.253998 -3.563004,10.146011 -9.513,10.932007c-5.947998,0.785004 -11.354004,-2.839005 -12.048004,-8.093002c-0.694,-5.255005 3.594009,-10.145996 9.542007,-10.931c5.949005,-0.785995 11.32402,2.837997 12.018997,8.091995l0,0z" id="path19" stroke-miterlimit="10" stroke-width="0.036" stroke="black" fill-rule="evenodd" fill="black"/>
  <path d="m248.697006,214.485992c0.240997,1.601013 -0.906006,3.110001 -2.537003,3.321014c-1.600006,0.21199 -3.109009,-0.936005 -3.320999,-2.56601c-0.210999,-1.600998 0.936996,-3.110001 2.565994,-3.320999c1.600998,-0.212006 3.080002,0.934998 3.292007,2.565994l0,0z" id="path21" stroke-miterlimit="10" stroke-width="0.036" stroke="black" fill-rule="evenodd" fill="white"/>
  <path d="m179.075333,211.525665c-2.506012,4.80101 -0.210999,10.961014 5.102997,13.739014c5.313995,2.776993 11.686005,1.146988 14.192001,-3.654007c2.505997,-4.800995 0.21199,-10.931 -5.102997,-13.738998c-5.314011,-2.778 -11.654999,-1.147995 -14.192001,3.653992l0,0z" id="path23" stroke-miterlimit="10" stroke-width="0.036" stroke="black" fill-rule="evenodd" fill="black"/>
  <path d="m188.115677,214.491669c-0.755005,1.449005 -0.210999,3.231003 1.237991,3.986008c1.449997,0.784988 3.231003,0.210999 4.016006,-1.238007c0.75499,-1.449005 0.181,-3.229996 -1.268005,-3.985992c-1.449997,-0.755005 -3.231003,-0.212006 -3.985992,1.237991l0,0z" id="path25" stroke-miterlimit="10" stroke-width="0.036" stroke="black" fill-rule="evenodd" fill="white"/>
  <path d="m263.143555,189.039474c-3.153809,-1.842499 -9.501648,-4.607437 -14.213455,-5.988724c-4.862839,-1.559677 -10.71611,-2.587723 -14.326752,-2.658142c-3.800644,-0.141998 -7.105469,0.886047 -7.562286,1.984497c-0.417831,1.063263 1.93808,3.437393 5.167374,4.395035c3.229309,0.744034 8.96933,-0.283997 13.56662,0.744034c4.446259,1.063263 9.309082,3.472595 12.691925,5.174286c3.155029,1.452866 5.322174,3.720215 6.803436,3.933792c1.44223,0.070419 2.203644,-1.452866 1.975861,-2.80014c-0.302063,-1.312042 -1.177979,-3.04892 -4.102722,-4.784637l0,0z" id="path27" stroke-miterlimit="10" stroke-width="0.036" stroke="black" fill-rule="evenodd" fill="black" transform="rotate(-57.7435 247.14 188.503)"/>
  <path d="m178.439804,191.943359c3.137833,-1.849396 9.608322,-3.992401 14.55014,-5.126526c4.823639,-1.092361 10.668106,-1.681 14.355301,-1.260757c3.567734,0.420258 6.901672,1.932877 7.292603,3.403778c0.275345,1.260727 -2.352081,3.825378 -5.450943,4.454391c-3.332642,0.546875 -8.981003,-1.596115 -13.45137,-0.924011c-4.588562,0.630371 -9.569336,2.898621 -12.981201,4.369507c-3.452133,1.344238 -5.608109,3.613892 -7.06012,3.740509c-1.529953,-0.084869 -2.196213,-2.14299 -1.685806,-3.572128c0.392227,-1.512634 1.215652,-3.360611 4.431396,-5.084763l0,0z" id="path29" stroke-miterlimit="10" stroke-width="0.036" stroke="black" fill-rule="evenodd" fill="black" transform="rotate(39.8461 194.248 193.01)"/>
  <path d="m62.598999,212.065994c-1.509998,-0.481995 -3.230999,-1.08699 -5.163998,-0.875c-2.023003,0.181 -4.68,0 -6.462002,2.355011c-1.841999,2.414993 -4.197998,7.608994 -4.287998,11.50499c-0.151001,3.714005 1.781998,8.516006 3.834999,10.779007c2.022999,2.175003 6.221001,2.718994 8.395,2.205002c2.143997,-0.725006 3.201,-5.404999 4.438999,-5.889008c1.146999,-0.483002 2.688,1.449005 2.506001,3.231003c-0.210999,1.721008 -1.027,6.188995 -3.834999,7.216995c-3.050003,0.996002 -10.176003,0.904999 -13.558002,-1.44899c-3.411999,-2.507004 -5.798,-8.455002 -6.221001,-13.287003c-0.452999,-4.921997 1.329002,-12.169006 3.835003,-15.792999c2.445999,-3.593002 7.487999,-5.344009 10.931,-5.737c3.473,-0.483002 7.699997,1.541 9.420998,2.807999c1.418999,1.237991 0.392998,3.834991 -0.271996,4.408997c-0.693001,0.363998 -2.112,-1.056 -3.562004,-1.479004l0,0z" id="path33" stroke-miterlimit="10" stroke-width="0.036" stroke="black" fill-rule="evenodd"/>
  <path d="m162.307999,17.27c-2.054001,-3.201 -5.375,-4.5 -10.296997,-4.016001c-4.983002,0.483001 -9.361008,0.543 -18.964005,7.036001c-9.752998,6.491999 -25.485001,17.846001 -38.469994,31.615997c-13.045006,13.708 -28.717003,32.912003 -38.983002,50.154999c-10.358002,17.211006 -16.910004,37.413002 -22.225002,52.209007c-5.314999,14.584991 -8.424999,25.666992 -9.209999,35.119003c-0.846001,9.42099 0.604,16.335999 4.348,21.076996l0,0c-4.228001,1.569992 -6.823999,3.53299 -8.122999,6.009003c-1.238001,2.444992 -0.936001,6.370987 0.543999,8.515991c1.389,1.962997 3.805,3.139999 7.579,3.533005l0,0c-1.238001,9.089005 -3.110001,19.80899 -5.948,32.611984c-2.959999,12.803009 -7.429,24.126007 -10.841,43.633026c-3.442,19.506989 -8.183001,48.253998 -9.210001,72.260986c-0.936,23.945007 3.442,50.397003 3.231,70.266998c-0.513,19.687988 -5.073,35.993988 -5.405,47.287018c-0.333,11.263977 -1.39,17.634979 3.805,19.566986c5.194,1.690002 14.222,2.445984 27.086,-9.028015c12.864,-11.71698 35.964003,-37.444 49.280989,-59.728973c13.166,-22.404999 28.083,-46.53302 29.26001,-72.743011c0.875999,-26.270996 -17.45401,-57.79599 -23.311996,-83.282013c-5.888,-25.424988 -9.482002,-47.859985 -11.354004,-68.242981l0,0c4.37899,-2.295013 7.157005,-4.771011 8.667,-7.670013c1.389,-2.929001 1.510002,-7.186996 0,-9.511993c-1.599998,-2.354996 -4.559998,-3.865005 -9.209999,-4.529007l0,0c16.246002,-11.082001 29.774002,-22.76799 41.15799,-35.631989c11.324013,-13.014999 18.269005,-20.594009 26.542015,-41.127007c8.212997,-20.624001 15.431,-47.288002 22.224991,-81.288998l0,0c5.617004,18.418999 16.035004,35.390003 31.947998,52.178989c15.854004,16.667999 31.284012,28.747009 62.838013,47.167007c31.766998,18.449997 72.953979,38.802002 125.678009,62.324997l0,0c-5.496002,1.541 -8.999023,3.473007 -10.840027,6.039001c-1.842987,2.598007 -1.691986,6.462997 0,9.029007c1.660004,2.414993 4.801025,4.257004 9.753021,5.524994l0,0c0.119995,10.479004 -2.657013,24.126999 -8.666016,41.642014c-6.16098,17.573975 -23.463989,40.34198 -27.087006,62.71698c-3.562988,22.285004 -1.268982,47.167023 5.949005,69.753998c7.186005,22.527008 22.104004,45.56601 36.83902,64.229004c14.765991,18.570007 39.496979,38.953003 50.911987,46.140015c11.141998,6.915009 15.036987,7.94101 16.243988,-4.5c1.087006,-12.651001 -7.457977,-40.190002 -9.208984,-70.266998c-1.721008,-30.347015 0.876007,-82.526001 -1.057007,-109.371002c-2.144989,-26.662994 -7.700989,-32.460999 -10.841003,-49.673004c-3.140991,-17.303009 -5.557007,-34.755997 -7.578979,-53.175995l0,0c4.286987,-2.627014 6.884979,-5.436005 8.121979,-8.666c1.14801,-3.353012 0.665009,-8.305008 -1.087006,-10.539001c-1.871979,-2.175003 -5.013,-3.050003 -9.752991,-2.507004l0,0c3.925018,-14.403 2.054016,-31.615005 -5.947998,-52.692001c-8.03299,-21.138 -17.786011,-50.277 -41.730988,-72.744011c-24.278015,-22.495998 -70.298004,-48.796989 -101.822998,-61.207989c-31.585007,-12.35 -66.250015,-13.316 -85.606018,-12.561c-19.265991,0.815 -28.776993,6.341 -29.229996,17.061l0,0z" id="path35" stroke-miterlimit="10" stroke-width="0.036" stroke="black" fill-rule="evenodd"/>
  <path d="m43.666,135.699005c-3.956001,9.270996 -7.247002,19.11499 -9.753002,27.08699c-2.626999,7.850998 -4.468998,13.919998 -5.404999,20.081009c-0.935999,6.190002 -1.056999,12.138992 0,16.546997c1.027,4.257996 1.691,7.850998 5.949001,9.028992c4.257999,1.147003 10.811001,0.544006 18.962997,-2.505997c8.093002,-3.321991 18.631004,-8.998001 28.717003,-16.546997c9.903999,-7.578995 21.559998,-18.268997 30.317001,-28.113007c8.575996,-9.844986 14.765999,-18.450989 21.137001,-30.588989c6.341003,-12.350006 12.440994,-28.384003 16.789001,-42.154007c4.227997,-13.861 6.884995,-28.625996 8.666992,-39.647995c1.69101,-11.021 2.929001,-20.322002 1.630005,-25.576002c-1.358002,-5.254999 -4.378006,-6.160999 -9.753006,-5.525999c-5.464996,0.513 -12.500992,1.389 -22.737991,9.028999c-10.448006,7.668999 -27.146004,23.101002 -39.014008,36.628002c-11.987999,13.498001 -24.307999,31.433998 -31.947998,43.664001c-7.608997,12.136993 -9.723,19.143997 -13.557999,28.594002l0,0z" id="path37" stroke-miterlimit="10" stroke-width="0.036" stroke="black" fill-rule="evenodd" fill="#ffb600"/>
  <path d="m143.343994,31.311001c-7.548996,6.25 -26.149994,22.918999 -39.013992,39.164997c-12.894005,16.185005 -27.146004,38.470001 -37.383003,57.192001c-10.236,18.660995 -19.084,42.154007 -23.280998,53.688995c-4.196999,11.263 -2.144001,13.376999 -1.631001,14.041c0.393002,0.514008 1.147999,-2.416 4.348999,-10.539001c3.141003,-8.304001 7.428001,-23.854996 14.615002,-38.138c7.247002,-14.43399 18.933998,-33.578995 28.172997,-47.166992c9.089005,-13.589005 17.756004,-24.369003 25.999001,-33.608002c8.123001,-9.239998 16.577995,-16.155998 22.224998,-21.559998c5.585999,-5.466003 9.693008,-8.878002 10.811005,-11.053001c0.934998,-2.263 2.414993,-8.212999 -4.863007,-2.021999l0,0z" id="path39" stroke-miterlimit="10" stroke-width="0.036" stroke="black" fill-rule="evenodd"/>
  <path d="m136.852005,58.426998c-5.194,5.738003 -15.008003,18.903004 -22.225006,32.612003c-7.277,13.709999 -11.655998,32.340996 -20.594002,48.677002c-9.088997,16.216003 -27.569,39.315994 -32.491997,47.649994c-4.771,8.093002 -0.936001,6.130005 3.805,0.997009c4.621002,-5.375 17.030998,-21.862 23.824997,-32.098999c6.704002,-10.237015 11.535004,-18.178009 16.246002,-28.596008c4.590004,-10.539001 5.708,-22.708 11.384003,-33.609001c5.707001,-10.931999 17.301994,-24.881996 22.193993,-31.132999c4.681,-6.280998 6.281006,-5.253998 5.979004,-6.008999c-0.421997,-0.875 -3.018997,-4.136002 -8.121994,1.509998l0,0z" id="path41" stroke-miterlimit="10" stroke-width="0.036" stroke="black" fill-rule="evenodd"/>
  <path d="m151.466995,71.955002c-0.513,4.5 -4.347992,19.236 -6.491989,25.092995c-2.205002,5.708 -6.130005,9.572006 -6.522003,9.029007c-0.514008,-0.755005 2.233994,-7.126007 3.804001,-13.044006c1.600998,-6.040001 3.713989,-18.993996 5.405991,-22.556999c1.479004,-3.563995 4.227005,-2.959999 3.804001,1.479004l0,0z" id="path43" stroke-miterlimit="10" stroke-width="0.036" stroke="black" fill-rule="evenodd"/>
  <path d="m98.925003,162.031006c0,1.539993 0.996994,2.748001 2.235001,2.748001c1.237999,0 2.233994,-1.208008 2.233994,-2.748001c0,-1.51001 -0.995995,-2.749008 -2.233994,-2.749008c-1.238007,0.001007 -2.235001,1.238998 -2.235001,2.749008l0,0z" id="path45" stroke-miterlimit="10" stroke-width="0.036" stroke="black" fill-rule="evenodd"/>
  <path d="m96.750999,168.794998c-1.056999,2.294998 -4.528999,6.794006 -7.034996,9.542007c-2.688004,2.597 -7.338005,6.12999 -8.123001,6.039993c-0.755005,-0.272003 1.359001,-3.744995 3.773994,-7.035995c2.385002,-3.442001 8.304001,-11.052002 10.297005,-12.561996c1.841995,-1.480011 2.054001,1.720993 1.086998,4.015991l0,0z" id="path47" stroke-miterlimit="10" stroke-width="0.036" stroke="black" fill-rule="evenodd"/>
  <path d="m29.051001,213.455994c-3.110001,-0.029999 -5.103001,0.846008 -5.979,2.506012c-0.937,1.630997 -1.148001,5.737 0.542999,7.549988c1.601,1.751007 4.167,2.747009 9.209002,2.989014c4.981998,0.210999 13.709,0.060989 20.593998,-1.51001c6.885002,-1.722 15.431,-5.164001 20.050003,-8.001999c4.499001,-2.869003 6.703995,-5.949005 6.492996,-8.546005c-0.422997,-2.597 -3.200996,-4.981995 -8.667,-7.035995l0,0c-6.07,4.076004 -12.381001,6.975006 -19.507,9.059006c-7.154999,1.962997 -14.583,2.959 -22.735998,2.98999l0,0z" id="path49" stroke-miterlimit="10" stroke-width="0.036" stroke="black" fill-rule="evenodd" fill="#ff80c2"/>
  <path d="m40.948002,222.998001c1.841999,0.362 4.771,0.270996 8.667,-0.514008c3.773998,-0.844986 11.775997,-2.686996 14.101997,-4.015991c2.144001,-1.359009 1.298,-4.046997 -0.542999,-3.986008c-1.902,-0.060989 -6.189999,3.050003 -10.297001,3.986008c-4.167,0.845993 -12.077999,0.724991 -14.070999,1.509995c-1.964001,0.755005 0.27,2.536011 2.142002,3.020004l0,0z" id="path51" stroke-miterlimit="10" stroke-width="0.036" stroke="black" fill-rule="evenodd"/>
  <path d="m66.946999,213.214005c0,1.509995 1.026001,2.746994 2.264999,2.746994c1.208,0 2.205002,-1.237 2.205002,-2.746994c0,-1.511002 -0.997002,-2.748001 -2.205002,-2.748001c-1.237999,0 -2.264999,1.237991 -2.264999,2.748001l0,0z" id="path53" stroke-miterlimit="10" stroke-width="0.036" stroke="black" fill-rule="evenodd"/>
  <path d="m396.842987,203.942993c-14.403992,-5.707001 -31.645996,-13.375992 -52.541992,-23.582993c-21.046997,-10.266998 -49.643982,-23.884995 -72.048981,-37.141998c-22.46701,-13.436996 -45.89801,-28.806999 -61.207016,-42.153999c-15.339996,-13.347 -22.164993,-25.757004 -29.774002,-37.111004c-7.580002,-11.504997 -13.498001,-21.832001 -15.188995,-30.618999c-1.751007,-8.786999 -0.242004,-16.909 4.891998,-21.589999c5.102997,-4.771 12.229004,-6.130001 25.455002,-6.522c13.195999,-0.483 34.544006,-0.544 53.085007,4.016c18.449982,4.62 38.257996,14.223001 56.858978,23.582999c18.571014,9.421001 39.587006,21.952999 53.629028,32.128998c13.859985,9.964005 21.438995,18.239006 29.259979,27.600006c7.761017,9.299995 11.958008,18.389999 16.790009,28.082001c4.681,9.664001 8.514984,16.276001 11.384003,29.623001c2.837982,13.376999 4.528992,29.623001 5.404999,49.672989l0,0c-2.899017,2.295013 -6.462006,3.835007 -10.811005,4.499008c-4.40799,0.634003 -9.359009,0.513 -15.187012,-0.484009l0,0z" id="path55" stroke-miterlimit="10" stroke-width="0.036" stroke="black" fill-rule="evenodd" fill="#ffb600"/>
  <path d="m196.429001,18.778999c12.380997,1.570002 42.184006,3.594 64.469009,13.044001c22.285004,9.421999 47.256989,26.754999 67.699982,43.150999c20.292023,16.427002 39.769012,36.205002 53.085022,54.201996c13.135986,17.96701 21.470001,42.42601 25.455994,52.180008c3.773987,9.330994 1.026001,10.326996 -2.175018,4.498993c-3.290985,-5.917999 -8.847992,-25.757996 -16.789001,-39.134003c-7.91098,-13.467987 -15.882996,-25.968994 -30.315979,-40.645004c-14.585999,-14.765991 -39.226013,-34.514992 -56.348022,-46.652988c-17.181,-12.168999 -31.675995,-19.688 -46.048981,-25.577c-14.555008,-5.948 -28.686005,-7.610001 -40.070007,-9.542c-11.414001,-1.902 -24.429001,-1.178001 -27.630005,-2.023001c-3.229996,-0.995001 -3.561996,-5.072001 8.667007,-3.502001l0,0z" id="path57" stroke-miterlimit="10" stroke-width="0.036" stroke="black" fill-rule="evenodd"/>
  <path d="m185.044998,36.837002c5.615997,7.186996 21.138,28.051998 36.296005,42.666996c15.037003,14.555 30.619003,29.230003 53.627991,44.148003c23.070007,14.734993 64.348999,34.181999 83.433014,44.146996c18.842987,9.844009 22.496002,10.35701 29.22998,15.068008c6.583008,4.679993 7.609009,10.537994 10.296997,13.044998c2.597015,2.445999 6.069,3.804001 5.405029,1.509995c-0.846008,-2.416 -4.047028,-10.992004 -9.72403,-15.580994c-5.645996,-4.621002 -7.458984,-3.624008 -23.85498,-12.018997c-16.638,-8.606003 -53.11499,-25.335007 -74.735016,-38.651001c-21.651001,-13.377007 -36.326996,-24.792007 -54.172989,-40.645004c-17.996002,-16.003998 -43.119995,-44.540001 -52.541,-53.688999c-9.360001,-9.029001 -8.817001,-7.127003 -3.261002,0l0,0z" id="path59" stroke-miterlimit="10" stroke-width="0.036" stroke="black" fill-rule="evenodd"/>
  <path d="m342.670013,174.320999c1.962982,1.781998 10.417999,7.488998 18.963989,11.535004c8.454987,3.895996 26.270996,10.628998 31.43399,12.048004c4.862,1.237991 3.382996,-1.298004 -1.630981,-4.016006c-5.162018,-2.778 -21.197021,-8.968002 -28.173004,-12.048004c-6.88501,-3.110001 -9.632019,-5.285004 -13.015015,-6.522995c-3.592987,-1.268005 -9.42099,-2.807999 -7.578979,-0.996002l0,0z" id="path61" stroke-miterlimit="10" stroke-width="0.036" stroke="black" fill-rule="evenodd"/>
  <path d="m334.548004,170.576996c0,1.51001 0.996002,2.748001 2.234009,2.748001c1.237,0 2.233978,-1.237991 2.233978,-2.748001c0,-1.539993 -0.996979,-2.778 -2.233978,-2.778c-1.238007,0 -2.234009,1.238007 -2.234009,2.778l0,0z" id="path63" stroke-miterlimit="10" stroke-width="0.036" stroke="black" fill-rule="evenodd"/>
  <path d="m389.414001,205.574005c3.774994,3.080994 8.454987,4.408997 14.61499,3.985992c6.100006,-0.423004 13.195007,-2.597 21.649994,-6.522003l0,0c4.138,-0.181 6.854004,0.665009 8.153015,2.537003c1.299011,1.811996 1.238007,6.009003 -0.544006,8.514999c-1.962006,2.386002 -3.984985,4.893005 -10.839996,6.01001c-7.065002,1.026001 -23.01001,1.08699 -30.347992,0.513c-7.277008,-0.664001 -11.020996,-2.234009 -12.984009,-4.016006c-2.02301,-1.841995 -0.694,-4.681 1.087006,-6.522003c1.751984,-1.843002 4.712006,-3.382996 9.210999,-4.500992l0,0z" id="path65" stroke-miterlimit="10" stroke-width="0.036" stroke="black" fill-rule="evenodd" fill="#ff80c2"/>
  <path d="m418.885986,216.626007c-1.750977,0.844986 -4.528992,1.44899 -8.454987,1.811996c-4.015991,0.270996 -12.109009,0.543991 -14.735992,-0.121002c-2.657013,-0.815002 -2.505005,-3.503006 -0.725006,-3.985001c1.751984,-0.453003 6.855011,1.238007 11.112,1.117004c4.257996,-0.332001 11.626007,-2.445999 13.950989,-2.264999c2.083008,0.210999 0.453003,2.444992 -1.147003,3.442001l0,0z" id="path67" stroke-miterlimit="10" stroke-width="0.036" stroke="black" fill-rule="evenodd"/>
  <path d="m390.95401,214.149994c0.481995,1.449005 -0.121002,2.89801 -1.299011,3.231003c-1.177002,0.332001 -2.506012,-0.604004 -2.989014,-2.054001c-0.452972,-1.478989 0.121002,-2.929001 1.299011,-3.229996c1.178009,-0.332993 2.506012,0.572998 2.989014,2.052994l0,0z" id="path69" stroke-miterlimit="10" stroke-width="0.036" stroke="black" fill-rule="evenodd"/>
  <path d="m274.03299,154.875c3.654022,2.776993 17.786011,11.957993 27.601013,17.061005c9.78299,4.951996 24.911987,11.353989 30.346985,13.044998c5.194,1.600998 5.947998,-0.061005 1.087006,-2.990005c-5.072998,-3.020004 -21.438995,-10.084991 -30.346985,-14.554993c-9.059998,-4.529007 -17.847015,-9.904007 -22.738007,-12.048004c-4.862,-2.143997 -9.60199,-3.292007 -5.950012,-0.513l0,0z" id="path71" stroke-miterlimit="10" stroke-width="0.036" stroke="black" fill-rule="evenodd"/>
  <path d="m343.27301,187.546997c0.483002,1.449997 -0.089996,2.899002 -1.268005,3.231003c-1.208008,0.332993 -2.537018,-0.604004 -2.989014,-2.052994c-0.483002,-1.450012 0.089996,-2.89801 1.269012,-3.231003c1.178009,-0.332001 2.535004,0.604004 2.988007,2.052994l0,0z" id="path73" stroke-miterlimit="10" stroke-width="0.036" stroke="black" fill-rule="evenodd"/>
  <path d="m189.876007,94.271004c1.479996,2.324997 9.451996,10.779999 14.252991,15.459999c4.740997,4.468994 11.384003,10.024994 14.102005,11.534996c2.688004,1.359001 3.502991,-0.695 1.871994,-2.656998c-1.690994,-2.023003 -8.093002,-4.922005 -12.108994,-8.696999c-4.227005,-3.865005 -9.451004,-11.082001 -12.531006,-13.739006c-3.110001,-2.657997 -7.035004,-4.227997 -5.58699,-1.901993l0,0z" id="path75" stroke-miterlimit="10" stroke-width="0.036" stroke="black" fill-rule="evenodd"/>
  <path d="m187.25,88.683998c0.363007,1.087006 -0.059998,2.174004 -0.966003,2.416c-0.875992,0.242004 -1.901993,-0.422997 -2.235001,-1.540001c-0.362,-1.086998 0.061005,-2.173996 0.966003,-2.416c0.876007,-0.271996 1.902008,0.422005 2.235001,1.540001l0,0z" id="path77" stroke-miterlimit="10" stroke-width="0.036" stroke="black" fill-rule="evenodd"/>
  <path d="m183.475006,82.644997c0.332001,1.117004 -0.090012,2.204002 -0.966003,2.446007c-0.906006,0.241997 -1.902008,-0.453003 -2.264999,-1.540001c-0.362,-1.117004 0.089996,-2.204002 0.966003,-2.445999c0.905991,-0.242004 1.903,0.452995 2.264999,1.539993l0,0z" id="path79" stroke-miterlimit="10" stroke-width="0.036" stroke="black" fill-rule="evenodd"/>
  <path d="m389.414001,224.990997c7.881012,0.302002 14.765991,0.302002 21.106995,0c6.311005,-0.362 11.535004,-1.026993 16.244995,-1.992996l0,0c1.147003,20.352997 2.960022,37.473984 5.436005,52.179001c2.507019,14.556 6.976013,20.322998 9.209991,35.118988c2.114014,14.917023 2.688019,37.232025 3.231018,53.206024c0.423004,15.763 -0.96701,25.937988 -0.544006,41.126984c0.333008,15.188995 1.238007,34.72699 2.717987,49.190002c1.420013,14.342987 4.801025,27.509003 5.948029,36.114014c1.116974,8.363983 2.506989,12.440979 0.543976,14.556c-2.173981,2.082977 -5.918976,2.656982 -12.983978,-2.02301c-7.187012,-4.891998 -19.266022,-16.003998 -29.261017,-26.572998c-10.085999,-10.598999 -21.04599,-22.072998 -30.31601,-36.627991c-9.330994,-14.735016 -20.321991,-32.763 -24.941986,-50.699005c-4.681,-18.027008 -4.257996,-40.524017 -2.687988,-56.196014c1.539978,-15.730988 7.639984,-26.662994 11.895996,-37.110992c4.138,-10.479004 9.330994,-16.395996 13.015991,-25.093018c3.68399,-8.787994 6.613007,-19.566986 8.666016,-27.085983c1.871979,-7.581009 2.778992,-13.529999 2.717987,-18.089005l0,0z" id="path81" stroke-miterlimit="10" stroke-width="0.036" stroke="black" fill-rule="evenodd" fill="#ffb600"/>
  <path d="m396.450012,242.050995c-1.51001,5.919006 -2.114014,20.595001 -5.436005,34.122009c-3.473022,13.376984 -12.290009,29.562988 -15.15802,45.656982c-2.929993,15.943024 -4.862,32.068024 -2.174988,49.673004c2.717987,17.665009 9.994995,37.775024 17.877014,55.199005c7.789978,17.240997 23.280975,40.825012 28.172974,47.679993c4.650024,6.613007 3.412018,-0.513977 0,-7.518982c-3.623993,-7.21701 -14.402985,-22.255005 -20.562988,-34.636017c-6.221008,-12.470978 -12.049011,-25.515991 -15.733002,-39.134979c-3.713989,-13.739014 -6.007996,-28.988007 -5.947998,-42.153015c0.061005,-13.286987 3.623993,-25.093994 6.492004,-36.11499c2.838989,-10.931 7.669983,-20.321991 10.298004,-29.109009c2.414978,-8.816986 3.924988,-16.244995 4.891998,-23.583008c1.026001,-7.549988 1.419006,-17.121994 1.057007,-20.563995c-0.605011,-3.381989 -2.175018,-5.314987 -3.776001,0.483002l0,0z" id="path83" stroke-miterlimit="10" stroke-width="0.036" stroke="black" fill-rule="evenodd"/>
  <path d="m411.063995,232.539993c-0.966003,7.036011 0.604004,29.229996 -0.542999,48.16301c-1.328003,18.842987 -8.876984,43.119995 -7.036011,64.227997c1.873016,20.987 13.77002,40.463989 17.877014,61.208008c4.015991,20.684998 4.136993,50.971985 5.947998,62.204987c1.660004,11.020996 4.046997,11.505005 4.347992,4.015991c0.152008,-7.698975 -0.875,-35.146973 -2.717987,-49.158997c-1.871002,-14.070984 -4.618988,-21.138 -8.122009,-34.121979c-3.68399,-13.045013 -11.322998,-28.596008 -13.014984,-43.150024c-1.601013,-14.61499 2.052979,-32.974976 3.260986,-43.663971c1.058014,-10.720001 2.29599,-9.481018 3.261993,-20.050018c0.966003,-10.690002 2.536011,-34.817001 2.14502,-43.151001c-0.63501,-8.396988 -4.378998,-13.438995 -5.407013,-6.524002l0,0z" id="path85" stroke-miterlimit="10" stroke-width="0.036" stroke="black" fill-rule="evenodd"/>
  <path d="m360.696991,392.096985c0.96701,4.5 5.253998,16.035004 8.667023,23.070007c3.290985,6.854004 8.574982,15.550995 10.839996,18.058014c2.203979,2.35498 3.773987,1.145996 2.143982,-3.503021c-1.751007,-4.710999 -9.390991,-17.211975 -12.440002,-24.096985c-3.139984,-6.976013 -4.468994,-14.796997 -5.979004,-17.061005c-1.630981,-2.294983 -4.106995,-0.966003 -3.231995,3.53299l0,0z" id="path87" stroke-miterlimit="10" stroke-width="0.036" stroke="black" fill-rule="evenodd"/>
  <path d="m361.149994,380.230011c0.483002,1.449982 -0.091003,2.89798 -1.268005,3.230988c-1.208984,0.332001 -2.536987,-0.604004 -2.98999,-2.053986c-0.483002,-1.479004 0.091003,-2.929016 1.268005,-3.231018c1.178986,-0.332001 2.536987,0.574005 2.98999,2.054016l0,0z" id="path89" stroke-miterlimit="10" stroke-width="0.036" stroke="black" fill-rule="evenodd"/>
  <path d="m32.977001,229.007004c7.972,0.966003 15.037998,0.966003 21.650997,0c6.583,-1.027008 12.168999,-2.990005 17.333,-6.01001l0,0c2.385002,22.647003 5.526001,42.697006 9.752998,61.207993c4.197006,18.420013 10.931,35.571014 15.189003,48.677002c4.137001,13.045013 9.058998,18.088013 9.752998,29.109009c0.604004,10.931 -0.965996,22.346008 -5.978996,36.11499c-5.254005,13.709015 -15.400002,31.373016 -24.369003,45.656006c-8.999001,14.253021 -19.808998,28.656006 -28.716999,39.13501c-9.058998,10.417999 -17.573999,18.027008 -24.368,22.587006c-6.824999,4.317993 -12.561999,6.462006 -15.702,3.653992c-3.11,-2.929993 -3.05,-12.199005 -2.718,-20.595001c0.241,-8.424988 3.745,-17.393005 4.348,-29.59201c0.483,-12.35199 -0.573,-28.958984 -1.087,-43.664978c-0.574,-14.766022 -3.322,-26.451996 -2.174,-44.145996c1.147,-17.876007 5.435,-44.238007 8.666,-61.722015c3.050001,-17.423004 6.613001,-28.71701 9.753,-42.153992c3.111,-13.587006 5.889,-26.028015 8.668001,-38.257004l0,0z" id="path91" stroke-miterlimit="10" stroke-width="0.036" stroke="black" fill-rule="evenodd" fill="#ffb600"/>
  <path d="m38.381001,237.160004c-1.721001,10.658997 -2.929001,44.237 -5.948002,64.740997c-3.140999,20.320984 -9.330999,36.386993 -11.927999,56.708984c-2.536999,20.353027 -3.382,45.959015 -3.230999,64.228027c0.121,17.96698 4.136999,31.343994 3.774,43.633972c-0.543001,12.26001 -6.009001,25.123016 -6.492001,29.622009c-0.483,4.287994 2.174,0.121002 3.775,-3.53299c1.570002,-3.864014 4.589001,-11.263 5.435001,-18.570007c0.664999,-7.337982 -0.393002,-14.131989 -1.087,-24.57901c-0.785002,-10.508972 -3.654001,-21.529999 -3.261002,-37.625c0.302,-16.276001 2.778,-41.700989 5.435001,-58.701996c2.657,-17.000977 7.760998,-30.014984 10.297001,-42.666992c2.416,-12.683014 3.079998,-21.229004 4.317997,-33.096008c1.208,-12.018005 2.778,-31.373993 2.718002,-38.137985c-0.241001,-6.675003 -2.204002,-12.594009 -3.805,-2.024002l0,0z" id="path93" stroke-miterlimit="10" stroke-width="0.036" stroke="black" fill-rule="evenodd"/>
  <path d="m56.800999,237.673004c-1.690998,8.604996 -5.888,33.880005 -4.317997,50.186005c1.539997,16.216003 10.356998,32.311005 13.528,46.653992c3.110001,14.252014 6.764,23.825012 4.891998,38.621002c-2.053001,14.704987 -10.960999,31.645996 -16.819,49.188995c-5.979,17.574005 -16.035,46.261017 -18.389999,55.199005c-2.325001,8.665985 1.056999,4.046997 4.318001,-3.019989c3.260998,-7.338013 8.635998,-23.040009 14.614998,-39.64801c5.858002,-16.757996 17.121002,-42.968994 20.050003,-59.184998c2.778,-16.244995 -0.333,-23.463013 -3.261002,-37.141998c-3.110001,-13.679016 -12.290001,-30.680023 -14.615002,-44.145996c-2.294998,-13.559021 0.121002,-26.421997 1.087002,-36.146027c0.937,-9.78299 4.409,-18.057983 4.348999,-21.560989c-0.242001,-3.440002 -3.834999,-7.606995 -5.436001,0.999008l0,0z" id="path95" stroke-miterlimit="10" stroke-width="0.036" stroke="black" fill-rule="evenodd"/>
  <path d="m95.815002,392.731995c-2.325005,2.929016 -7.700005,13.859009 -13.559006,24.06601c-6.069,10.084991 -18.570995,29.894989 -21.650997,36.113983c-2.959,6.040009 0.091,5.042999 3.774998,0.514008c3.624001,-4.681 12.531006,-18.540985 17.875999,-27.600006c5.284004,-9.027985 11.203003,-20.593994 13.559006,-26.089996c2.235001,-5.556 2.235001,-9.902985 0,-7.003998l0,0z" id="path97" stroke-miterlimit="10" stroke-width="0.036" stroke="black" fill-rule="evenodd"/>
  <path d="m101.160004,384.729004c0.452995,1.479004 -0.121002,2.929993 -1.299004,3.230988c-1.178001,0.332001 -2.537003,-0.574005 -2.988998,-2.052979c-0.483002,-1.450012 0.089996,-2.899017 1.297997,-3.231018c1.178001,-0.332001 2.507004,0.604004 2.990005,2.053009l0,0z" id="path99" stroke-miterlimit="10" stroke-width="0.036" stroke="black" fill-rule="evenodd"/>
  <path d="m57.827999,461.005005c0.452999,1.449005 -0.120998,2.89801 -1.298,3.230988c-1.177998,0.330994 -2.536999,-0.604004 -2.988998,-2.053986c-0.483002,-1.449005 0.09,-2.899017 1.267998,-3.230011c1.207001,-0.332001 2.536003,0.604004 3.019001,2.053009l0,0z" id="path101" stroke-miterlimit="10" stroke-width="0.036" stroke="black" fill-rule="evenodd"/>
  <path d="m222.707001,302.843994c2.613998,0.604004 3.656998,0.410004 6.641006,2.437012c2.996994,2.048981 7.815994,5.498993 11.136993,9.618988c3.309006,4.139008 5.921997,8.690002 8.546997,15.009003c2.626007,6.360992 5.382996,15.007996 7.085007,22.664001c1.69101,7.656006 2.673981,15.138 3.020996,22.837006l0,0c-0.312012,1.337006 -0.492004,2.803009 -0.587006,4.570984c-0.071991,1.833008 -0.119995,5.28302 0.084015,5.931c0.250977,0.625 0.885986,-0.366974 1.209991,-2.156982c0.324005,-1.725006 0.227997,-5.694 0.731995,-8.324005c0.575012,-2.56601 2.122009,-5.347992 2.553009,-7.266998c0.454987,-1.897003 0.227997,-3.536987 0.096008,-4.097992c-0.084015,-0.473999 -0.322998,-0.257996 -0.815002,0.992981c-0.492004,1.294006 -1.175018,3.364014 -2.098022,6.447021l0,0c-0.647003,-7.590027 -1.858002,-15.115997 -3.679993,-22.837006c-1.787003,-7.697998 -4.147995,-16.497009 -7.228989,-23.160004c-3.069,-6.576996 -7.792007,-12.270996 -11.208008,-16.153015c-3.440994,-3.794983 -6.630005,-5.131989 -9.147003,-6.68399c-2.445999,-1.488007 -3.572998,-1.833008 -5.455002,-2.286011c-1.880997,-0.366974 -3.692001,-0.366974 -5.610001,0c-1.845993,0.453003 -2.985001,0.798004 -5.453995,2.286011c-2.481995,1.553009 -5.682999,2.889008 -9.147003,6.68399c-3.391998,3.882019 -8.11499,9.576019 -11.207993,16.153015c-3.069,6.662994 -5.371002,15.460999 -7.229004,23.160004c-1.834,7.721008 -3.033005,15.246979 -3.692001,22.837006l0,0c-0.360001,-2.264008 -0.946991,-3.795013 -1.761993,-4.679016c-0.791,-0.84201 -3.009003,-1.380005 -3.044998,-0.540009c0,0.884003 2.265991,3.710022 3.044998,5.651001c0.850998,2.005005 1.474991,3.838013 1.821991,6.167023c0.335999,2.415985 0,7.052002 0.240005,8.086975c0.311005,1.098999 1.078995,-0.776978 1.330994,-1.811981c0.251999,-1.056 0.251999,-2.825012 0.144012,-4.399017c-0.085007,-1.509003 -0.264008,-2.975983 -0.588013,-4.570984l0,0c0.335999,-7.699005 1.331009,-15.181 3.021011,-22.837006c1.702988,-7.656006 4.459991,-16.303009 7.084991,-22.664001c2.625,-6.319 5.238998,-10.869995 8.546997,-15.009003c3.320999,-4.119995 8.139999,-7.570007 11.137009,-9.618988c2.985001,-2.027008 4.028,-1.833008 6.640991,-2.437012c2.612,-0.626007 1.210007,-0.626007 3.835007,0l0,0z" id="path31" stroke-miterlimit="10" stroke-width="0.036" stroke="black" fill-rule="evenodd" fill="black"/>
  <g id="svg_8">
   <path transform="rotate(-57.7435 382.503 50.9663)" id="svg_1" d="m395.220398,51.424339c-2.506073,-1.570007 -7.550079,-3.92601 -11.294006,-5.102997c-3.864044,-1.32901 -8.515076,-2.205002 -11.384094,-2.264999c-3.019958,-0.121002 -5.645996,0.75499 -6.008972,1.690994c-0.332031,0.906006 1.540009,2.929001 4.106018,3.744995c2.565979,0.634003 7.126953,-0.241989 10.780029,0.634003c3.53299,0.906006 7.396973,2.959 10.084991,4.408997c2.506989,1.238007 4.229034,3.169998 5.406036,3.352005c1.145996,0.059998 1.750977,-1.238007 1.569946,-2.386002c-0.23999,-1.117996 -0.935974,-2.597992 -3.259949,-4.076996l0,0z" stroke-miterlimit="10" stroke-width="0.036" stroke="black" fill-rule="evenodd" fill="black"/>
   <path transform="rotate(-57.7435 394.836 64.9663)" id="svg_3" d="m409.155396,65.469337c-2.821045,-1.727997 -8.501038,-4.322006 -12.717041,-5.617004c-4.349976,-1.462997 -9.587982,-2.427994 -12.817993,-2.494003c-3.400024,-0.132996 -6.357056,0.831009 -6.766022,1.862c-0.374054,0.997009 1.733978,3.223999 4.623016,4.122009c2.890015,0.697998 8.025024,-0.266006 12.138,0.697998c3.979004,0.996994 8.330017,3.257004 11.356018,4.854004c2.822968,1.362 4.762024,3.488998 6.086975,3.690002c1.290985,0.065994 1.972046,-1.363007 1.767975,-2.627014c-0.269958,-1.230988 -1.053955,-2.859985 -3.670929,-4.487991l0,0z" stroke-miterlimit="10" stroke-width="0.036" stroke="black" fill-rule="evenodd" fill="black"/>
   <path transform="rotate(39.8461 380.652 60.9893)" id="svg_5" d="m368.480286,60.222343c2.416016,-1.32901 7.398041,-2.869003 11.203003,-3.684006c3.714081,-0.785004 8.214111,-1.208008 11.05307,-0.906006c2.747009,0.302002 5.313995,1.389008 5.61499,2.445999c0.212006,0.906006 -1.811005,2.749008 -4.197021,3.201004c-2.565948,0.393005 -6.914948,-1.147003 -10.356995,-0.664001c-3.53299,0.453003 -7.368011,2.083008 -9.995026,3.139999c-2.65802,0.966003 -4.317963,2.597 -5.435974,2.688004c-1.178009,-0.061005 -1.69104,-1.539993 -1.298035,-2.567001c0.302032,-1.087006 0.936035,-2.414993 3.411987,-3.653992l0,0z" stroke-miterlimit="10" stroke-width="0.036" stroke="black" fill-rule="evenodd" fill="black"/>
   <path transform="rotate(39.8461 390.815 54.1273)" id="svg_6" d="m376.461304,53.360329c2.848999,-1.328995 8.725098,-2.868988 13.212097,-3.68399c4.378967,-0.785004 9.685974,-1.208008 13.033997,-0.906006c3.238953,0.302002 6.266968,1.389008 6.621948,2.445999c0.25,0.906006 -2.135986,2.749008 -4.949951,3.201004c-3.026001,0.393005 -8.153992,-1.147003 -12.213013,-0.664001c-4.167023,0.453003 -8.689026,2.083008 -11.787048,3.139999c-3.13501,0.966003 -5.092041,2.597 -6.411011,2.688004c-1.389038,-0.061005 -1.993988,-1.540009 -1.530029,-2.567001c0.356018,-1.087006 1.104004,-2.414993 4.02301,-3.654007l0,0z" stroke-miterlimit="10" stroke-width="0.036" stroke="black" fill-rule="evenodd" fill="black"/>
  </g>
 </g>
</svg>